<svg width="402" height="402" viewBox="0 0 402 402" fill="none" xmlns="http://www.w3.org/2000/svg">
<circle cx="201" cy="204" r="150" fill="#0DF6E3" fill-opacity="0.1"/>
<circle cx="201.159" cy="203.725" r="192.461" fill="#201A30"/>
<circle cx="201.16" cy="203.726" r="182.046" stroke="#0DF6E3" stroke-width="8"/>
<mask id="path-4-inside-1_256_880" fill="white">
<path fill-rule="evenodd" clip-rule="evenodd" d="M239.801 334.518C243.706 338.424 250.076 338.439 253.691 334.265C299.486 281.388 298.112 202.21 248.947 153.045C197.455 101.553 113.04 102.483 60.4012 155.122C60.3423 155.181 60.2835 155.24 60.2248 155.299C60.3233 155.2 60.483 155.2 60.5815 155.299L239.801 334.518Z"/>
</mask>
<path fill-rule="evenodd" clip-rule="evenodd" d="M239.801 334.518C243.706 338.424 250.076 338.439 253.691 334.265C299.486 281.388 298.112 202.21 248.947 153.045C197.455 101.553 113.04 102.483 60.4012 155.122C60.3423 155.181 60.2835 155.24 60.2248 155.299C60.3233 155.2 60.483 155.2 60.5815 155.299L239.801 334.518Z" fill="#0DF6E3"/>
<path d="M253.691 334.265L272.589 350.631L253.691 334.265ZM231.27 170.723C270.768 210.221 272.374 274.506 234.794 317.898L272.589 350.631C326.599 288.27 325.456 194.198 266.625 135.367L231.27 170.723ZM78.0789 172.8C121.324 129.554 189.906 129.359 231.27 170.723L266.625 135.367C205.005 73.7471 104.757 75.4113 42.7235 137.444L78.0789 172.8ZM77.9338 172.945C77.9821 172.897 78.0305 172.848 78.0789 172.8L42.7235 137.444C42.6542 137.514 42.5849 137.583 42.5158 137.652L77.9338 172.945ZM42.9039 172.976L222.123 352.196L257.479 316.841L78.2592 137.621L42.9039 172.976ZM77.9024 172.976C68.2379 182.641 52.5685 182.641 42.9039 172.976L78.2592 137.621C68.3976 127.759 52.4087 127.759 42.5471 137.621L77.9024 172.976ZM234.794 317.898C241.441 310.222 251.965 311.327 257.479 316.841L222.123 352.196C235.448 365.521 258.71 366.656 272.589 350.631L234.794 317.898Z" fill="#0DF6E3" mask="url(#path-4-inside-1_256_880)"/>
<mask id="path-6-inside-2_256_880" fill="white">
<path fill-rule="evenodd" clip-rule="evenodd" d="M323.868 266.003C329.391 265.942 333.956 261.4 333.608 255.897C329.253 186.993 272.281 133.268 202.014 134.042C128.382 134.853 68.0346 195.201 67.2235 268.833C67.2212 269.034 67.2195 269.236 67.2181 269.437C67.2218 269.102 67.4964 268.827 67.8315 268.824L323.868 266.003Z"/>
</mask>
<path fill-rule="evenodd" clip-rule="evenodd" d="M323.868 266.003C329.391 265.942 333.956 261.4 333.608 255.897C329.253 186.993 272.281 133.268 202.014 134.042C128.382 134.853 68.0346 195.201 67.2235 268.833C67.2212 269.034 67.2195 269.236 67.2181 269.437C67.2218 269.102 67.4964 268.827 67.8315 268.824L323.868 266.003Z" fill="#0DF6E3"/>
<path d="M67.2235 268.833L42.225 269.108L67.2235 268.833ZM333.608 255.897L358.559 253.773L333.608 255.897ZM201.739 159.04C258.819 158.411 305.121 202.062 308.658 258.021L358.559 253.773C353.386 171.925 285.743 108.124 202.29 109.043L201.739 159.04ZM92.2219 268.557C92.881 208.732 141.913 159.699 201.739 159.04L202.29 109.043C114.852 110.006 43.1882 181.67 42.225 269.108L92.2219 268.557ZM92.2176 269.051C92.2187 268.886 92.2201 268.722 92.2219 268.557L42.225 269.108C42.2223 269.346 42.2202 269.585 42.2187 269.823L92.2176 269.051ZM67.5561 293.822L323.593 291.002L324.144 241.005L68.1069 243.825L67.5561 293.822ZM92.2166 269.162C92.0682 282.633 81.0273 293.674 67.5561 293.822L68.1069 243.825C53.9655 243.981 42.3754 255.571 42.2196 269.712L92.2166 269.162ZM308.658 258.021C308.015 247.839 316.366 241.09 324.144 241.005L323.593 291.002C342.416 290.794 359.898 274.961 358.559 253.773L308.658 258.021Z" fill="#0DF6E3" mask="url(#path-6-inside-2_256_880)"/>
<mask id="path-8-inside-3_256_880" fill="white">
<path fill-rule="evenodd" clip-rule="evenodd" d="M347.302 165.253C347.087 164.992 346.871 164.732 346.654 164.472C299.946 108.588 215.933 102.157 159.007 150.108C104.711 195.843 94.666 274.531 134.38 330.194C137.589 334.692 143.926 335.229 148.15 331.671L345.867 165.127C346.298 164.764 346.941 164.821 347.302 165.253Z"/>
</mask>
<path fill-rule="evenodd" clip-rule="evenodd" d="M347.302 165.253C347.087 164.992 346.871 164.732 346.654 164.472C299.946 108.588 215.933 102.157 159.007 150.108C104.711 195.843 94.666 274.531 134.38 330.194C137.589 334.692 143.926 335.229 148.15 331.671L345.867 165.127C346.298 164.764 346.941 164.821 347.302 165.253Z" fill="#0DF6E3"/>
<path d="M327.534 180.578C327.709 180.788 327.884 180.999 328.059 181.211L366.545 149.295C366.29 148.985 366.033 148.675 365.775 148.366L327.534 180.578ZM175.039 169.29C221.799 129.903 290.006 135.678 327.534 180.578L365.775 148.366C309.886 81.4979 210.067 74.4111 142.974 130.926L175.039 169.29ZM154.671 315.602C122.753 270.866 130.464 206.837 175.039 169.29L142.974 130.926C78.9582 184.848 66.5794 278.196 114.09 344.787L154.671 315.602ZM164.182 350.853L361.9 184.31L329.835 145.945L132.117 312.489L164.182 350.853ZM361.9 184.31C351.771 192.842 336.674 191.52 328.181 181.359L366.423 149.147C357.207 138.121 340.826 136.687 329.835 145.945L361.9 184.31ZM114.09 344.787C126.483 362.157 149.8 362.967 164.182 350.853L132.117 312.489C138.051 307.491 148.695 307.226 154.671 315.602L114.09 344.787Z" fill="#0DF6E3" mask="url(#path-8-inside-3_256_880)"/>
<circle cx="156.252" cy="203.726" r="32.0768" fill="white"/>
<circle cx="246.067" cy="203.726" r="32.0768" fill="white"/>
<circle cx="163.309" cy="212.066" r="16.0384" fill="#212326"/>
<circle cx="239.01" cy="212.066" r="16.0384" fill="#212326"/>
</svg>
