<svg width="25" height="25" viewBox="0 0 25 25" fill="none" xmlns="http://www.w3.org/2000/svg">
<path d="M23.5 13.2635C23.303 15.3958 22.5027 17.4279 21.1929 19.1219C19.8831 20.816 18.1179 22.102 16.1039 22.8295C14.0899 23.557 11.9104 23.6958 9.82036 23.2298C7.73032 22.7637 5.81623 21.7121 4.30206 20.1979C2.78788 18.6838 1.73626 16.7697 1.27023 14.6796C0.804198 12.5896 0.943043 10.4101 1.67052 8.39606C2.39799 6.38205 3.684 4.61688 5.37807 3.30709C7.07214 1.99729 9.10421 1.19705 11.2365 1C9.9881 2.68892 9.38737 4.76981 9.54356 6.86421C9.69974 8.95861 10.6025 10.9274 12.0875 12.4125C13.5726 13.8975 15.5414 14.8003 17.6358 14.9564C19.7302 15.1126 21.8111 14.5119 23.5 13.2635Z" stroke="#0D4A56" stroke-width="2" stroke-linecap="round" stroke-linejoin="round"/>
</svg>
