<svg width="24" height="24" viewBox="0 0 24 24" fill="none" xmlns="http://www.w3.org/2000/svg">
<g clip-path="url(#clip0_109_1032)">
<path d="M12.1785 16.5089C14.7673 16.5089 16.866 14.4103 16.866 11.8214C16.866 9.23259 14.7673 7.13393 12.1785 7.13393C9.58963 7.13393 7.49097 9.23259 7.49097 11.8214C7.49097 14.4103 9.58963 16.5089 12.1785 16.5089Z" stroke="#42474C" stroke-width="2" stroke-linecap="round" stroke-linejoin="round"/>
<path d="M12.1785 1.50893V3.38393" stroke="#42474C" stroke-width="2" stroke-linecap="round" stroke-linejoin="round"/>
<path d="M12.1785 20.2589V22.1339" stroke="#42474C" stroke-width="2" stroke-linecap="round" stroke-linejoin="round"/>
<path d="M4.8847 4.52768L6.21595 5.85893" stroke="#42474C" stroke-width="2" stroke-linecap="round" stroke-linejoin="round"/>
<path d="M18.141 17.7839L19.4722 19.1152" stroke="#42474C" stroke-width="2" stroke-linecap="round" stroke-linejoin="round"/>
<path d="M1.86597 11.8214H3.74097" stroke="#42474C" stroke-width="2" stroke-linecap="round" stroke-linejoin="round"/>
<path d="M20.616 11.8214H22.491" stroke="#42474C" stroke-width="2" stroke-linecap="round" stroke-linejoin="round"/>
<path d="M4.8847 19.1152L6.21595 17.7839" stroke="#42474C" stroke-width="2" stroke-linecap="round" stroke-linejoin="round"/>
<path d="M18.141 5.85893L19.4722 4.52768" stroke="#42474C" stroke-width="2" stroke-linecap="round" stroke-linejoin="round"/>
</g>
<defs>
<clipPath id="clip0_109_1032">
<rect width="22.5" height="22.5" fill="white" transform="translate(0.928467 0.571426)"/>
</clipPath>
</defs>
</svg>
